
<svg xmlns="http://www.w3.org/2000/svg" xmlns:xlink="http://www.w3.org/1999/xlink" width="259px" height="35px" viewBox="0 0 261 35" version="1.1">
<g id="surface1">
<path style=" stroke:none;fill-rule:nonzero;fill:rgb(0%,0%,0%);fill-opacity:1;" d="M 239.15625 26.445312 L 240.296875 26.445312 C 240.59375 25.207031 240.742188 23.871094 240.742188 22.429688 C 240.742188 21.816406 240.710938 21.21875 240.660156 20.644531 C 240.273438 19.824219 240.074219 18.851562 240.074219 17.714844 C 240.074219 17.6875 240.074219 17.664062 240.074219 17.632812 C 239.878906 16.992188 239.648438 16.378906 239.367188 15.800781 C 238.453125 13.90625 237.199219 12.449219 235.617188 11.433594 C 234.03125 10.414062 232.265625 9.90625 230.324219 9.90625 C 228.664062 9.90625 227.226562 10.234375 226.007812 10.890625 C 224.789062 11.539062 223.839844 12.449219 223.175781 13.613281 L 223.175781 2.398438 L 213.445312 2.398438 L 213.445312 10.214844 L 213.757812 10.214844 L 213.757812 12.183594 C 214.78125 17.414062 217.457031 21.632812 223.175781 22.449219 L 223.175781 22.429688 C 223.175781 22.285156 223.179688 22.140625 223.1875 22.003906 C 223.195312 21.832031 223.207031 21.667969 223.226562 21.503906 C 223.367188 20.363281 223.777344 19.433594 224.457031 18.722656 C 225.3125 17.820312 226.371094 17.371094 227.621094 17.371094 C 228.867188 17.371094 229.921875 17.8125 230.777344 18.699219 C 231.632812 19.589844 232.066406 20.828125 232.066406 22.429688 C 232.066406 24.03125 231.632812 25.246094 230.777344 26.160156 C 229.921875 27.082031 228.867188 27.535156 227.621094 27.535156 C 226.371094 27.535156 225.3125 27.085938 224.457031 26.183594 C 223.671875 25.363281 223.25 24.242188 223.183594 22.828125 C 223.179688 22.730469 223.175781 22.628906 223.175781 22.53125 L 223.175781 22.457031 C 217.457031 23.273438 214.78125 27.492188 213.757812 32.722656 L 213.757812 34.695312 L 223.175781 34.695312 L 223.175781 31.292969 C 223.839844 32.457031 224.789062 33.363281 226.007812 34.019531 C 227.226562 34.675781 228.664062 35 230.324219 35 C 232.265625 35 234.03125 34.492188 235.617188 33.472656 C 237.199219 32.457031 238.453125 30.992188 239.367188 29.089844 C 239.449219 28.914062 239.523438 28.734375 239.601562 28.550781 C 239.46875 28.171875 239.351562 27.789062 239.28125 27.390625 C 239.222656 27.085938 239.183594 26.769531 239.160156 26.445312 Z M 239.15625 26.445312 "></path>
<path style=" stroke:none;fill-rule:nonzero;fill:rgb(0%,0%,0%);fill-opacity:1;" d="M 20.800781 15.007812 C 20.269531 13.96875 19.542969 13.054688 18.617188 12.265625 C 16.789062 10.691406 14.273438 9.90625 11.078125 9.90625 C 8.929688 9.90625 7.089844 10.257812 5.566406 10.953125 C 4.039062 11.652344 2.886719 12.589844 2.101562 13.769531 C 1.316406 14.945312 0.921875 16.265625 0.921875 17.714844 C 0.921875 19.40625 1.347656 20.742188 2.210938 21.734375 C 3.066406 22.722656 4.078125 23.433594 5.238281 23.871094 C 6.398438 24.308594 7.851562 24.699219 9.597656 25.050781 C 11.132812 25.398438 12.238281 25.71875 12.910156 26.007812 C 13.578125 26.300781 13.910156 26.75 13.910156 27.363281 C 13.910156 27.828125 13.707031 28.207031 13.300781 28.5 C 12.894531 28.785156 12.339844 28.933594 11.644531 28.933594 C 10.742188 28.933594 9.992188 28.714844 9.378906 28.277344 C 8.769531 27.84375 8.402344 27.230469 8.289062 26.445312 L 0.00390625 26.445312 C 0.125 28.078125 0.683594 29.539062 1.683594 30.832031 C 2.6875 32.125 4.050781 33.144531 5.78125 33.886719 C 7.511719 34.625 9.480469 35 11.6875 35 C 13.75 35 15.546875 34.675781 17.074219 34.019531 C 18.597656 33.363281 19.777344 32.46875 20.605469 31.335938 C 21.433594 30.199219 21.84375 28.921875 21.84375 27.492188 C 21.84375 25.71875 21.402344 24.316406 20.519531 23.28125 C 19.628906 22.246094 18.597656 21.5 17.421875 21.035156 C 16.246094 20.570312 14.769531 20.148438 12.996094 19.769531 C 11.511719 19.449219 10.441406 19.132812 9.769531 18.832031 C 9.101562 18.523438 8.769531 18.078125 8.769531 17.5 C 8.769531 17.035156 8.949219 16.671875 9.3125 16.40625 C 9.675781 16.144531 10.207031 16.015625 10.90625 16.015625 C 11.804688 16.015625 12.523438 16.226562 13.0625 16.648438 C 13.597656 17.070312 13.9375 17.671875 14.085938 18.457031 L 21.800781 18.457031 C 21.757812 18.070312 21.695312 17.691406 21.613281 17.324219 L 20.800781 17.324219 Z M 20.800781 15.007812 "></path>
<path style=" stroke:none;fill-rule:nonzero;fill:rgb(0%,0%,0%);fill-opacity:1;" d="M 34.398438 27.40625 C 33.671875 27.40625 33.15625 27.257812 32.855469 26.972656 C 32.546875 26.679688 32.394531 26.199219 32.394531 25.527344 L 32.394531 17.324219 L 36.492188 17.324219 L 36.492188 10.214844 L 32.394531 10.214844 L 32.394531 4.277344 L 23.804688 4.277344 L 23.804688 10.214844 L 20.800781 10.214844 L 20.800781 17.324219 L 23.804688 17.324219 L 23.804688 25.398438 C 23.804688 31.59375 26.929688 34.695312 33.179688 34.695312 L 36.882812 34.695312 L 36.882812 27.957031 C 36.835938 27.777344 36.796875 27.59375 36.757812 27.40625 Z M 34.398438 27.40625 "></path>
<path style=" stroke:none;fill-rule:nonzero;fill:rgb(0%,0%,0%);fill-opacity:1;" d="M 61.6875 18.105469 L 61.6875 10.214844 L 53.097656 10.214844 L 53.097656 23.347656 C 53.097656 24.742188 52.734375 25.839844 52.007812 26.640625 C 51.28125 27.441406 50.296875 27.84375 49.046875 27.84375 C 47.796875 27.84375 46.84375 27.441406 46.105469 26.640625 C 45.363281 25.839844 44.992188 24.742188 44.992188 23.347656 L 44.992188 10.214844 L 36.492188 10.214844 L 36.492188 24.4375 C 36.492188 25.5 36.582031 26.492188 36.757812 27.40625 C 36.796875 27.59375 36.835938 27.777344 36.882812 27.957031 C 37.269531 29.582031 37.964844 30.960938 38.953125 32.097656 C 40.597656 33.976562 42.839844 34.914062 45.6875 34.914062 C 47.347656 34.914062 48.8125 34.570312 50.089844 33.886719 C 51.371094 33.203125 52.371094 32.308594 53.097656 31.199219 L 53.097656 34.695312 L 61.6875 34.695312 L 61.6875 26.765625 C 61.339844 25.4375 61.164062 23.996094 61.164062 22.429688 C 61.164062 20.863281 61.339844 19.425781 61.6875 18.105469 Z M 61.6875 18.105469 "></path>
<path style=" stroke:none;fill-rule:nonzero;fill:rgb(0%,0%,0%);fill-opacity:1;" d="M 87.316406 20.316406 L 87.316406 2.398438 L 78.726562 2.398438 L 78.726562 13.570312 C 78.035156 12.4375 77.066406 11.539062 75.832031 10.890625 C 74.59375 10.234375 73.195312 9.90625 71.628906 9.90625 C 69.679688 9.90625 67.902344 10.414062 66.304688 11.433594 C 64.707031 12.449219 63.449219 13.90625 62.535156 15.800781 C 62.1875 16.519531 61.902344 17.289062 61.6875 18.105469 C 61.339844 19.421875 61.164062 20.863281 61.164062 22.429688 C 61.164062 23.996094 61.339844 25.441406 61.6875 26.765625 C 61.902344 27.585938 62.1875 28.359375 62.535156 29.089844 C 63.449219 30.992188 64.703125 32.457031 66.285156 33.472656 C 67.871094 34.492188 69.636719 35 71.578125 35 C 73.238281 35 74.675781 34.664062 75.894531 33.992188 C 77.117188 33.328125 78.0625 32.421875 78.726562 31.292969 L 78.726562 34.695312 L 87.316406 34.695312 L 87.316406 24.527344 C 87.230469 23.855469 87.1875 23.15625 87.1875 22.429688 C 87.1875 21.703125 87.230469 20.992188 87.316406 20.316406 Z M 77.488281 26.183594 C 76.632812 27.085938 75.574219 27.535156 74.324219 27.535156 C 73.078125 27.535156 71.984375 27.082031 71.144531 26.160156 C 70.300781 25.246094 69.878906 24 69.878906 22.429688 C 69.878906 20.859375 70.300781 19.589844 71.144531 18.699219 C 71.984375 17.8125 73.046875 17.371094 74.324219 17.371094 C 75.601562 17.371094 76.632812 17.820312 77.488281 18.722656 C 78.34375 19.621094 78.777344 20.859375 78.777344 22.429688 C 78.777344 24 78.34375 25.285156 77.488281 26.183594 Z M 77.488281 26.183594 "></path>
<path style=" stroke:none;fill-rule:nonzero;fill:rgb(0%,0%,0%);fill-opacity:1;" d="M 110.375 15.644531 C 109.328125 13.796875 107.878906 12.378906 106.015625 11.390625 C 104.15625 10.398438 102.023438 9.90625 99.609375 9.90625 C 97.199219 9.90625 95.011719 10.414062 93.136719 11.433594 C 91.261719 12.449219 89.800781 13.898438 88.753906 15.773438 C 88.007812 17.117188 87.527344 18.628906 87.316406 20.316406 C 87.230469 20.992188 87.1875 21.695312 87.1875 22.429688 C 87.1875 23.164062 87.230469 23.855469 87.316406 24.527344 C 87.53125 26.226562 88.015625 27.75 88.777344 29.109375 C 89.839844 31 91.304688 32.457031 93.179688 33.472656 C 95.054688 34.492188 97.199219 35 99.609375 35 C 101.613281 35 103.441406 34.621094 105.101562 33.863281 C 106.757812 33.109375 108.132812 32.066406 109.222656 30.746094 C 110.308594 29.417969 111.046875 27.914062 111.425781 26.226562 L 102.3125 26.226562 C 101.699219 27.507812 100.683594 28.148438 99.261719 28.148438 C 98.242188 28.148438 97.410156 27.820312 96.753906 27.167969 C 96.097656 26.511719 95.730469 25.515625 95.644531 24.179688 L 111.644531 24.179688 L 111.644531 19.070312 C 111.390625 17.824219 110.964844 16.6875 110.375 15.644531 Z M 95.6875 20.03125 C 95.886719 18.925781 96.324219 18.089844 96.992188 17.519531 C 97.664062 16.953125 98.519531 16.671875 99.566406 16.671875 C 100.613281 16.671875 101.484375 16.96875 102.179688 17.566406 C 102.878906 18.160156 103.226562 18.984375 103.226562 20.03125 Z M 95.6875 20.03125 "></path>
<path style=" stroke:none;fill-rule:nonzero;fill:rgb(0%,0%,0%);fill-opacity:1;" d="M 136.097656 15.773438 C 135.6875 14.648438 135.105469 13.65625 134.355469 12.808594 C 132.699219 10.933594 130.460938 9.992188 127.640625 9.992188 C 125.984375 9.992188 124.515625 10.332031 123.238281 11.019531 C 121.960938 11.703125 120.941406 12.597656 120.1875 13.699219 L 120.1875 10.214844 L 111.644531 10.214844 L 111.644531 34.695312 L 120.1875 34.695312 L 120.1875 21.558594 C 120.1875 20.164062 120.550781 19.0625 121.277344 18.261719 C 122.003906 17.460938 123.003906 17.0625 124.28125 17.0625 C 125.558594 17.0625 126.476562 17.460938 127.207031 18.261719 C 127.933594 19.0625 128.296875 20.164062 128.296875 21.558594 L 128.296875 34.695312 L 136.835938 34.695312 L 136.835938 20.421875 C 136.835938 19.3125 136.738281 18.277344 136.53125 17.324219 L 136.097656 17.324219 Z M 136.097656 15.773438 "></path>
<path style=" stroke:none;fill-rule:nonzero;fill:rgb(0%,0%,0%);fill-opacity:1;" d="M 148.148438 26.972656 C 147.84375 26.679688 147.691406 26.199219 147.691406 25.527344 L 147.691406 17.324219 L 152.140625 17.324219 L 152.140625 10.214844 L 147.691406 10.214844 L 147.691406 4.277344 L 139.105469 4.277344 L 139.105469 10.214844 L 136.097656 10.214844 L 136.097656 17.324219 L 139.105469 17.324219 L 139.105469 25.398438 C 139.105469 31.59375 142.230469 34.695312 148.476562 34.695312 L 152.183594 34.695312 L 152.183594 27.40625 L 149.695312 27.40625 C 148.972656 27.40625 148.457031 27.257812 148.148438 26.972656 Z M 148.148438 26.972656 "></path>
<path style=" stroke:none;fill-rule:nonzero;fill:rgb(0%,0%,0%);fill-opacity:1;" d="M 177.332031 25.3125 C 176.839844 26.914062 175.820312 27.714844 174.285156 27.714844 C 173.210938 27.714844 172.355469 27.257812 171.734375 26.359375 C 171.109375 25.457031 170.796875 24.148438 170.796875 22.429688 C 170.796875 20.710938 171.109375 19.410156 171.734375 18.523438 C 172.355469 17.640625 173.210938 17.195312 174.285156 17.195312 C 175.792969 17.195312 176.8125 17.992188 177.332031 19.59375 L 186.128906 19.59375 L 186.128906 18.445312 C 185.429688 15.9375 184.152344 13.941406 182.304688 12.460938 C 180.179688 10.753906 177.566406 9.90625 174.457031 9.90625 C 172.046875 9.90625 169.902344 10.414062 168.027344 11.433594 C 166.15625 12.449219 164.691406 13.90625 163.648438 15.800781 C 162.601562 17.6875 162.078125 19.898438 162.078125 22.429688 C 162.078125 24.957031 162.601562 27.214844 163.648438 29.109375 C 164.691406 31 166.15625 32.457031 168.027344 33.472656 C 169.902344 34.492188 172.046875 35 174.457031 35 C 177.566406 35 180.179688 34.140625 182.304688 32.421875 C 184.152344 30.929688 185.429688 28.933594 186.128906 26.449219 L 186.128906 25.3125 Z M 177.332031 25.3125 "></path>
<path style=" stroke:none;fill-rule:nonzero;fill:rgb(0%,0%,0%);fill-opacity:1;" d="M 194.675781 14.53125 L 194.675781 10.214844 L 186.128906 10.214844 L 186.128906 34.695312 L 194.675781 34.695312 L 194.675781 24 C 194.675781 22.199219 195.125 20.933594 196.023438 20.207031 C 196.921875 19.476562 198.308594 19.113281 200.164062 19.113281 L 202.5625 19.113281 L 202.5625 10.214844 C 200.992188 10.214844 199.527344 10.398438 198.160156 11.214844 C 196.792969 12.027344 195.632812 13.136719 194.675781 14.53125 Z M 194.675781 14.53125 "></path>
<path style=" stroke:none;fill-rule:nonzero;fill:rgb(0%,0%,0%);fill-opacity:1;" d="M 203.703125 22.453125 L 203.703125 34.695312 L 213.445312 34.695312 C 212.730469 28.570312 210.136719 23.363281 203.703125 22.453125 Z M 203.703125 22.453125 "></path>
<path style=" stroke:none;fill-rule:nonzero;fill:rgb(0%,0%,0%);fill-opacity:1;" d="M 213.445312 10.214844 L 203.703125 10.214844 L 203.703125 22.453125 C 210.136719 21.542969 212.730469 16.332031 213.445312 10.214844 Z M 213.445312 10.214844 "></path>
<path style=" stroke:none;fill-rule:nonzero;fill:rgb(0%,0%,0%);fill-opacity:1;" d="M 213.757812 10.214844 L 213.445312 10.214844 C 213.523438 10.882812 213.628906 11.539062 213.757812 12.183594 Z M 213.757812 10.214844 "></path>
<path style=" stroke:none;fill-rule:nonzero;fill:rgb(0%,0%,0%);fill-opacity:1;" d="M 213.445312 34.695312 L 213.757812 34.695312 L 213.757812 32.722656 C 213.632812 33.367188 213.527344 34.023438 213.445312 34.695312 Z M 213.445312 34.695312 "></path>
<path style=" stroke:none;fill-rule:nonzero;fill:rgb(0%,0%,0%);fill-opacity:1;" d="M 259.664062 23.28125 C 258.78125 22.246094 257.746094 21.5 256.570312 21.035156 C 255.390625 20.570312 253.917969 20.148438 252.148438 19.769531 C 250.664062 19.449219 249.589844 19.132812 248.917969 18.832031 C 248.253906 18.523438 247.917969 18.078125 247.917969 17.5 C 247.917969 17.035156 248.101562 16.671875 248.464844 16.40625 C 248.828125 16.144531 249.359375 16.015625 250.050781 16.015625 C 250.957031 16.015625 251.675781 16.226562 252.210938 16.648438 C 252.75 17.070312 253.089844 17.671875 253.234375 18.457031 L 260.953125 18.457031 C 260.660156 15.898438 259.597656 13.835938 257.769531 12.265625 C 255.9375 10.691406 253.425781 9.90625 250.230469 9.90625 C 248.074219 9.90625 246.238281 10.257812 244.710938 10.953125 C 243.191406 11.652344 242.03125 12.589844 241.246094 13.769531 C 240.476562 14.921875 240.089844 16.214844 240.074219 17.632812 C 240.074219 17.664062 240.074219 17.6875 240.074219 17.714844 C 240.074219 18.851562 240.277344 19.824219 240.660156 20.644531 C 240.851562 21.046875 241.082031 21.410156 241.363281 21.734375 C 242.21875 22.722656 243.230469 23.433594 244.390625 23.871094 C 245.554688 24.308594 247.007812 24.699219 248.75 25.050781 C 250.292969 25.398438 251.398438 25.71875 252.0625 26.007812 C 252.730469 26.300781 253.066406 26.75 253.066406 27.363281 C 253.066406 27.828125 252.859375 28.207031 252.453125 28.5 C 252.046875 28.785156 251.496094 28.933594 250.796875 28.933594 C 249.898438 28.933594 249.144531 28.714844 248.535156 28.277344 C 247.921875 27.84375 247.558594 27.230469 247.445312 26.445312 L 239.160156 26.445312 C 239.183594 26.769531 239.222656 27.085938 239.28125 27.390625 C 239.359375 27.789062 239.46875 28.171875 239.601562 28.550781 C 239.882812 29.363281 240.289062 30.125 240.839844 30.832031 C 241.839844 32.125 243.210938 33.144531 244.9375 33.886719 C 246.664062 34.625 248.636719 35 250.84375 35 C 252.910156 35 254.703125 34.675781 256.226562 34.019531 C 257.75 33.363281 258.929688 32.46875 259.757812 31.335938 C 260.585938 30.199219 261 28.921875 261 27.492188 C 261 25.71875 260.554688 24.316406 259.671875 23.28125 Z M 259.664062 23.28125 "></path>
<path style=" stroke:none;fill-rule:nonzero;fill:rgb(0%,0%,0%);fill-opacity:1;" d="M 212.636719 4.277344 C 212.636719 1.914062 210.726562 0 208.363281 0 C 206.003906 0 204.09375 1.914062 204.09375 4.277344 C 204.09375 6.640625 206.003906 8.554688 208.363281 8.554688 C 210.726562 8.554688 212.636719 6.640625 212.636719 4.277344 Z M 212.636719 4.277344 "></path>
<path style=" stroke:none;fill-rule:nonzero;fill:rgb(100%,80.000001%,0%);fill-opacity:1;" d="M 223.167969 22.453125 C 223.167969 22.453125 223.179688 22.453125 223.183594 22.453125 C 223.179688 22.453125 223.175781 22.453125 223.167969 22.453125 C 217.453125 21.640625 214.777344 17.417969 213.753906 12.1875 C 213.628906 11.546875 213.523438 10.890625 213.441406 10.21875 C 212.722656 16.335938 210.128906 21.546875 203.699219 22.457031 C 210.128906 23.367188 212.722656 28.574219 213.441406 34.699219 C 213.519531 34.027344 213.625 33.371094 213.753906 32.730469 C 214.777344 27.496094 217.453125 23.277344 223.167969 22.464844 Z M 223.167969 22.453125 "></path>
</g>
</svg>